<?xml version="1.0" encoding="utf-8"?>
<!-- Generator: Adobe Illustrator 23.0.3, SVG Export Plug-In . SVG Version: 6.00 Build 0)  -->
<svg version="1.1" id="Capa_1" xmlns="http://www.w3.org/2000/svg" xmlns:xlink="http://www.w3.org/1999/xlink" x="0px" y="0px"
	 viewBox="0 0 187 187" style="enable-background:new 0 0 187 187;" xml:space="preserve">
<style type="text/css">
	.st0{fill:#010101;}
	.st1{fill:#030303;}
	.st2{fill:#4CB5AB;}
	.st3{fill:#FF5454;}
</style>
<g>
	<path class="st0" d="M153.2,88.9c-1.3-10.8-10-11.2-17-9.8c-3.7,0.8-6.7,3.9-6.7,3.9c-3.6-3.3-5.5-5.5-11.1-5
		c-5.2,0.4-9.3,3.8-9.3,3.8c-2.9-5.1-10.7-3.6-10.7-3.6c-3.1,1.2-3.2-0.6-3.2-2.9c0.1-5.7,0-11.4,0-17.1c0-3.9-1.3-7.2-4.1-9.9
		c-4.3-4.2-9.4-5.7-15.2-3.5c-6.6,2.5-9.6,7.5-9.7,14.4c-0.1,11.6,0,23.1,0,34.7c0,8.5,0,17.1,0,25.6c0,7.9,0,15.7,2.5,23.3
		c5.6,17.3,23.1,30,41.6,29.9c18.5-0.1,36.2-12.6,41-29.8C156.2,125.1,154.1,106.9,153.2,88.9z M144,131.4
		c-1,17.9-16.2,31.6-34,31.6c-17.8,0-33-13.8-34-31.6c-0.6-12-0.1-24.1-0.1-36.2c-0.1,0-0.1,0-0.2,0c0-11.6,0-23.1,0-34.7
		c0-3.7,0.6-7,5.2-6.9c4.2,0.1,4.9,3.3,4.9,6.8c0,13.4,0,26.8,0,40.2c0,3.4,0.3,6.8,4.6,6.9c4.4,0.1,4.8-3.2,4.8-6.7
		c0-2.7-0.1-5.4,0.1-8c0.3-3,1.9-5.2,5.1-5.1c3.1,0.1,4.8,2.1,4.8,5.3c0,3-0.1,6,0,9c0.1,3,1.2,5.3,4.6,5.4c3.7,0.1,4.9-2.4,5-5.6
		c0.1-2.8,0-5.7,0-8.5c0-3.4,1.5-5.6,4.9-5.7c3.5,0,4.9,2.4,5.1,5.6c0.1,2.8,0.1,5.7,0,8.5c0,3.3,1.3,5.7,4.9,5.6
		c3.3-0.1,4.5-2.3,4.5-5.5c0-3-0.1-6,0-9c0.2-3,1.6-5.3,4.9-5.3c3.4,0,5.1,2.1,5.1,5.5C144.3,105.9,144.7,118.7,144,131.4z"/>
	<path class="st0" d="M56.7,80c-1.7,0-3.3-0.8-4.2-2.3c-3.3-5.2-5.1-11.3-5.1-17.6c0-18.1,14.7-32.8,32.8-32.8s32.8,14.7,32.8,32.8
		c0,2.8-2.2,5-5,5s-5-2.2-5-5c0-12.6-10.2-22.8-22.8-22.8S57.4,47.6,57.4,60.1c0,4.3,1.2,8.6,3.5,12.2c1.5,2.3,0.8,5.4-1.5,6.9
		C58.5,79.7,57.6,80,56.7,80z"/>
	<path class="st0" d="M44.2,87.3c-1.7,0-3.3-0.8-4.2-2.3c-4.8-7.6-7.4-16.4-7.4-25.5C32.6,33.3,53.9,12,80.1,12s47.6,21.3,47.6,47.6
		c0,2.8-2.2,5-5,5s-5-2.2-5-5c0-20.7-16.8-37.6-37.6-37.6S42.6,38.8,42.6,59.6c0,7.2,2,14.1,5.8,20.1c1.5,2.3,0.8,5.4-1.5,6.9
		C46,87.1,45.1,87.3,44.2,87.3z"/>
</g>
</svg>
